<svg viewBox="0 0 24 24" width="24" height="24" xmlns="http://www.w3.org/2000/svg">
  <defs>
    <linearGradient id="pasteGrad" x1="0%" y1="0%" x2="100%" y2="100%">
      <stop offset="0%" stop-color="#22d3ee" />
      <stop offset="100%" stop-color="#0284c7" />
    </linearGradient>
  </defs>
  <path d="M 7,4 H 17 A 2,2 0 0 1 19,6 V 20 A 2,2 0 0 1 17,22 H 7 A 2,2 0 0 1 5,20 V 6 A 2,2 0 0 1 7,4 Z" fill="none" stroke="url(#pasteGrad)" stroke-width="2" />
  <path d="M 9,4 V 3 A 1,1 0 0 1 10,2 H 14 A 1,1 0 0 1 15,3 V 4" fill="url(#pasteGrad)" />
  <line x1="8" y1="9" x2="16" y2="9" stroke="url(#pasteGrad)" stroke-width="2" stroke-linecap="round" opacity="0.6" />
  <line x1="8" y1="13" x2="16" y2="13" stroke="url(#pasteGrad)" stroke-width="2" stroke-linecap="round" opacity="0.6" />
  <line x1="8" y1="17" x2="13" y2="17" stroke="url(#pasteGrad)" stroke-width="2" stroke-linecap="round" opacity="0.6" />
</svg>
